<?xml version="1.0" standalone="no"?>
<!DOCTYPE svg PUBLIC "-//W3C//DTD SVG 20010904//EN"
 "http://www.w3.org/TR/2001/REC-SVG-20010904/DTD/svg10.dtd">
<svg version="1.0" xmlns="http://www.w3.org/2000/svg"
 width="400.000000pt" height="400.000000pt" viewBox="0 0 400.000000 400.000000"
 preserveAspectRatio="xMidYMid meet">
<metadata>
Created by potrace 1.11, written by Peter Selinger 2001-2013
</metadata>
<g transform="translate(0.000000,400.000000) scale(0.100000,-0.100000)"
fill="#000000" stroke="none">
<path d="M1670 3754 c-229 -21 -483 -93 -685 -196 -398 -203 -716 -566 -869
-993 -60 -168 -91 -331 -103 -535 -15 -263 69 -632 199 -878 156 -293 386
-540 662 -707 266 -161 541 -241 866 -252 494 -16 934 151 1288 491 77 74 82
81 82 120 0 41 -4 46 -204 245 l-205 204 -41 -6 c-34 -4 -54 -17 -108 -69
-157 -151 -328 -239 -546 -283 -119 -24 -223 -29 -317 -16 -284 41 -482 134
-663 314 -147 148 -239 306 -293 507 -25 95 -28 121 -28 270 0 154 2 172 32
281 82 301 280 548 556 694 89 47 244 98 347 115 281 44 618 -47 830 -225 93
-79 121 -95 159 -95 32 0 52 17 227 192 106 105 198 204 204 219 25 58 -17
114 -172 232 -304 232 -660 360 -1035 371 -76 2 -158 2 -183 0z"/>
</g>
</svg>
